//// ------------------------------------------------------
//// THIS FILE WAS AUTOMATICALLY GENERATED (DO NOT MODIFY)
//// ------------------------------------------------------

Table Asset {
  id String [pk]
  type AssetType [not null]
  assetUrl String [not null]
  productAssets ProductAsset [not null]
  quoteAssets QuoteAsset [not null]
  createdAt DateTime [default: `now()`, not null]
  updatedAt DateTime [not null]
  createdById String
  updatedById String
  deletedById String
  quote Quote
}

Table CalculatorFormula {
  id String [pk]
  name String [unique, not null]
  description String
  calculates String [not null]
  formula String [not null]
  products Product [not null]
  createdAt DateTime [default: `now()`, not null]
  updatedAt DateTime [not null]
  createdById String
  updatedById String
  deletedById String
}

Table Country {
  id String [pk]
  name String [unique, not null]
  regions Region [not null]
  profiles Profile [not null]
  createdAt DateTime [default: `now()`, not null]
  updatedAt DateTime [not null]
  createdById String
  updatedById String
  deletedById String
}

Table Customer {
  id String [pk]
  description String
  userCustomers UserCustomer [not null]
  quotes Quote [not null]
  createdAt DateTime [default: `now()`, not null]
  updatedAt DateTime [not null]
  createdById String
  updatedById String
  deletedById String
}

Table EntityType {
  id String [pk]
  name String [unique, not null]
  profiles Profile [not null]
  createdAt DateTime [default: `now()`, not null]
  updatedAt DateTime [not null]
  createdById String
  updatedById String
  deletedById String
}

Table Material {
  id String [pk]
  name String [unique, not null]
  attributes TechnicalAttributeMaterial [not null]
  products Product [not null]
  createdAt DateTime [default: `now()`, not null]
  updatedAt DateTime [not null]
  createdById String
  updatedById String
  deletedById String
}

Table MeasurementUnit {
  id String [pk]
  unit String [not null]
  attributes TechnicalAttribute [not null]
  createdAt DateTime [default: `now()`, not null]
  updatedAt DateTime [not null]
  createdById String
  updatedById String
  deletedById String
}

Table Product {
  id String [pk]
  description String
  formulaId String
  formula CalculatorFormula
  materialId String [not null]
  material Material [not null]
  images ProductAsset [not null]
  attributes TechnicalAttributeProduct [not null]
  services ProductService [not null]
  productQuotes ProductQuote [not null]
  quoteeProductServices QuoteeProductService [not null]
  quoteProductAttributeQuotees QuoteProductAttributeQuotee [not null]
  createdAt DateTime [default: `now()`, not null]
  updatedAt DateTime [not null]
  createdById String
  updatedById String
  deletedById String
}

Table Profile {
  userId String [unique, not null]
  user User [not null]
  firstName String [not null]
  lastName String [not null]
  email String [unique, not null]
  phoneNumber String [not null]
  addressOne String [not null]
  addressTwo String
  postalCode String [not null]
  entityTypeId String [not null]
  entityType EntityType [not null]
  countryId String [not null]
  country Country [not null]
  createdAt DateTime [default: `now()`, not null]
  updatedAt DateTime [not null]
  createdById String
  updatedById String
  deletedById String
}

Table Quote {
  id String [pk]
  clientId String [not null]
  client User [not null]
  agentId String
  agent User
  typeId String [not null]
  type QuoteType [not null]
  invoiceId String [unique]
  invoice Asset
  quoteeInputId String [unique, not null]
  quoteeInput QuoteeInput [not null]
  forCustomerId String
  forCustomer Customer
  status QuoteStatus [not null, default: 'draft']
  chatRoomId String
  products ProductQuote [not null]
  images QuoteAsset [not null]
  technicalDocuments QuoteAsset [not null]
  quoteeSelectedServices QuoteeProductService [not null]
  quoteProductInputValues QuoteProductAttributeQuotee [not null]
  requests RequestMessage [not null]
  createdAt DateTime [default: `now()`, not null]
  updatedAt DateTime [not null]
  createdById String
  updatedById String
  deletedById String
}

Table QuoteType {
  id String [pk]
  name String [unique, not null]
  quotes Quote [not null]
  createdAt DateTime [default: `now()`, not null]
  updatedAt DateTime [not null]
  createdById String
  updatedById String
  deletedById String
}

Table QuoteeInput {
  id String [pk]
  comment String
  quoteeInternalReference String
  quote Quote
  createdAt DateTime [default: `now()`, not null]
  updatedAt DateTime [not null]
  createdById String
  updatedById String
  deletedById String
}

Table Region {
  id String [pk]
  name String [not null]
  countryId String [not null]
  country Country [not null]
  createdAt DateTime [default: `now()`, not null]
  updatedAt DateTime [not null]
  createdById String
  updatedById String
  deletedById String

  indexes {
    (name, countryId) [unique]
  }
}

Table RequestMessage {
  id String [pk]
  message String [not null]
  satisfied Boolean [not null, default: false]
  quoteId String [not null]
  quote Quote [not null]
  createdAt DateTime [default: `now()`, not null]
  updatedAt DateTime [not null]
  createdById String
  updatedById String
  deletedById String
}

Table Role {
  id String [pk]
  name String [unique, not null]
  userRoles UserRole [not null]
  createdAt DateTime [default: `now()`, not null]
  updatedAt DateTime [not null]
  createdById String
  updatedById String
  deletedById String
}

Table Service {
  id String [pk]
  name String [unique, not null]
  productServices ProductService [not null]
  quoteeProductServices QuoteeProductService [not null]
  createdAt DateTime [default: `now()`, not null]
  updatedAt DateTime [not null]
  createdById String
  updatedById String
  deletedById String
}

Table TechnicalAttribute {
  id String [pk]
  name String [not null]
  var String [unique, not null]
  unitId String [not null]
  unit MeasurementUnit [not null]
  selectionValues String[] [not null]
  productAttributes TechnicalAttributeProduct [not null]
  materialAttributes TechnicalAttributeMaterial [not null]
  createdAt DateTime [default: `now()`, not null]
  updatedAt DateTime [not null]
  createdById String
  updatedById String
  deletedById String
}

Table User {
  id String [pk]
  banned Boolean [not null, default: false]
  roles UserRole [not null]
  profile Profile
  customers UserCustomer [not null]
  actions UserAction [not null]
  clientQuotes Quote [not null]
  agentQuotes Quote [not null]
  createdAt DateTime [default: `now()`, not null]
  updatedAt DateTime [not null]
}

Table UserAction {
  id Int [pk, increment]
  actionType ActionType [not null]
  user User [not null]
  userId String [not null]
  targetType String [not null]
  targetId Int [not null]
  timestamp DateTime [default: `now()`, not null]
}

Table UserRole {
  id String [pk]
  userId String [not null]
  user User [not null]
  roleId String [not null]
  role Role [not null]
  createdAt DateTime [default: `now()`, not null]
  updatedAt DateTime [not null]
  createdById String
  updatedById String
  deletedById String

  indexes {
    (userId, roleId) [unique]
  }
}

Table ProductAsset {
  id String [pk]
  productId String [not null]
  product Product [not null]
  assetId String [not null]
  asset Asset [not null]
  createdAt DateTime [default: `now()`, not null]
  updatedAt DateTime [not null]

  indexes {
    (productId, assetId) [unique]
  }
}

Table ProductQuote {
  id String [pk]
  productId String [not null]
  product Product [not null]
  quoteId String [not null]
  quote Quote [not null]
  quantity Int [not null]
  comment String
  createdAt DateTime [default: `now()`, not null]
  updatedAt DateTime [not null]
  createdById String
  updatedById String
  deletedById String

  indexes {
    (productId, quoteId) [unique]
  }
}

Table ProductService {
  id String [pk]
  productId String [not null]
  product Product [not null]
  serviceId String [not null]
  service Service [not null]
  createdAt DateTime [default: `now()`, not null]
  updatedAt DateTime [not null]
  createdById String
  updatedById String
  deletedById String

  indexes {
    (productId, serviceId) [unique]
  }
}

Table QuoteAsset {
  id String [pk]
  quoteId String [not null]
  quoteImages Quote [not null]
  technicalDocumentsQuoteId String
  technicalDocuments Quote
  assetId String [not null]
  asset Asset [not null]
  createdAt DateTime [default: `now()`, not null]
  updatedAt DateTime [not null]
  createdById String
  updatedById String
  deletedById String

  indexes {
    (quoteId, assetId) [unique]
  }
}

Table QuoteProductAttributeQuotee {
  id String [pk]
  quoteId String [not null]
  quote Quote [not null]
  productId String [not null]
  product Product [not null]
  quoteeProductInput Json
  createdAt DateTime [default: `now()`, not null]
  updatedAt DateTime [not null]
  createdById String
  updatedById String
  deletedById String

  indexes {
    (quoteId, productId) [unique]
  }
}

Table QuoteeProductService {
  id String [pk]
  productId String [not null]
  product Product [not null]
  quoteId String [not null]
  quote Quote [not null]
  serviceId String [not null]
  service Service [not null]
  createdAt DateTime [default: `now()`, not null]
  updatedAt DateTime [not null]
  createdById String
  updatedById String
  deletedById String

  indexes {
    (productId, quoteId, serviceId) [unique]
  }
}

Table TechnicalAttributeMaterial {
  id String [pk]
  materialId String [not null]
  material Material [not null]
  attributeId String [not null]
  attribute TechnicalAttribute [not null]
  createdAt DateTime [default: `now()`, not null]
  updatedAt DateTime [not null]
  createdById String
  updatedById String
  deletedById String

  indexes {
    (materialId, attributeId) [unique]
  }
}

Table TechnicalAttributeProduct {
  id String [pk]
  insertableForQuotation Boolean [not null, default: false]
  productId String [not null]
  product Product [not null]
  attributeId String [not null]
  attribute TechnicalAttribute [not null]
  createdAt DateTime [default: `now()`, not null]
  updatedAt DateTime [not null]
  createdById String
  updatedById String
  deletedById String

  indexes {
    (productId, attributeId) [unique]
  }
}

Table UserCustomer {
  id String [pk]
  userId String [not null]
  user User [not null]
  customerId String [not null]
  customer Customer [not null]
  createdAt DateTime [default: `now()`, not null]
  updatedAt DateTime [not null]
  createdById String
  updatedById String
  deletedById String

  indexes {
    (userId, customerId) [unique]
  }
}

Enum AssetType {
  product_image
  quote_documentation
  invoice
}

Enum QuoteStatus {
  draft
  analysis
  offer
  accepted
  pending
  delivered
}

Enum ActionType {
  Created
  Updated
  Deleted
}

Enum TargetType {
  Asset
  CalculatorFormula
  Country
  Currency
  Customer
  MeasurementUnit
  Profile
  Quote
  QuoteType
  QuoteeInput
  RequestMessage
  Role
  Service
  TechnicalAttribute
  User
  UserCustomer
  UserRole
}

Ref: Product.formulaId > CalculatorFormula.id

Ref: Product.materialId > Material.id

Ref: Profile.userId - User.id

Ref: Profile.entityTypeId > EntityType.id

Ref: Profile.countryId > Country.id

Ref: Quote.clientId > User.id

Ref: Quote.agentId > User.id

Ref: Quote.typeId > QuoteType.id

Ref: Quote.invoiceId - Asset.id

Ref: Quote.quoteeInputId - QuoteeInput.id

Ref: Quote.forCustomerId > Customer.id

Ref: Region.countryId > Country.id

Ref: RequestMessage.quoteId > Quote.id

Ref: TechnicalAttribute.unitId > MeasurementUnit.id

Ref: UserAction.userId > User.id

Ref: UserRole.userId > User.id

Ref: UserRole.roleId > Role.id

Ref: ProductAsset.productId > Product.id

Ref: ProductAsset.assetId > Asset.id

Ref: ProductQuote.productId > Product.id

Ref: ProductQuote.quoteId > Quote.id

Ref: ProductService.productId > Product.id

Ref: ProductService.serviceId > Service.id

Ref: QuoteAsset.quoteId > Quote.id

Ref: QuoteAsset.technicalDocumentsQuoteId > Quote.id

Ref: QuoteAsset.assetId > Asset.id

Ref: QuoteProductAttributeQuotee.quoteId > Quote.id

Ref: QuoteProductAttributeQuotee.productId > Product.id

Ref: QuoteeProductService.productId > Product.id

Ref: QuoteeProductService.quoteId > Quote.id

Ref: QuoteeProductService.serviceId > Service.id

Ref: TechnicalAttributeMaterial.materialId > Material.id

Ref: TechnicalAttributeMaterial.attributeId > TechnicalAttribute.id

Ref: TechnicalAttributeProduct.productId > Product.id

Ref: TechnicalAttributeProduct.attributeId > TechnicalAttribute.id

Ref: UserCustomer.userId > User.id

Ref: UserCustomer.customerId > Customer.id